<svg width="42" height="11" viewBox="0 0 42 11" fill="none" xmlns="http://www.w3.org/2000/svg">
<path d="M4.008 10.5H0.66V10.128L1.728 9.288V5.784L0.66 5.04V4.668L2.712 3.9H3.168V9.6L4.248 10.02L4.008 10.5ZM2.4 0.3C2.64 0.3 2.836 0.388 2.988 0.563999C3.148 0.739999 3.228 0.959999 3.228 1.224C3.228 1.408 3.172 1.584 3.06 1.752C2.948 1.912 2.808 2.04 2.64 2.136C2.472 2.232 2.308 2.28 2.148 2.28C1.908 2.28 1.708 2.192 1.548 2.016C1.396 1.84 1.32 1.62 1.32 1.356C1.32 1.172 1.376 1 1.488 0.839999C1.6 0.671999 1.74 0.539999 1.908 0.443999C2.076 0.348 2.24 0.3 2.4 0.3ZM8.43206 10.5H5.08406V10.128L6.15206 9.288V1.908L5.08406 1.164V0.792L7.13606 0.0239997H7.59206V9.6L8.67206 10.02L8.43206 10.5ZM12.8618 10.5H9.51375V10.128L10.5818 9.288V1.908L9.51375 1.164V0.792L11.5658 0.0239997H12.0218V9.6L13.1018 10.02L12.8618 10.5ZM21.2514 10.5H18.9714V9.252L17.4474 10.524C17.2794 10.588 17.0594 10.62 16.7874 10.62C16.2434 10.62 15.8114 10.456 15.4914 10.128C15.1714 9.792 15.0114 9.34 15.0114 8.772V5.904L13.9434 5.28V4.908L15.9954 3.9H16.4514V8.172C16.4514 8.612 16.5194 8.92 16.6554 9.096C16.7914 9.272 17.0354 9.36 17.3874 9.36C17.6354 9.36 17.8794 9.316 18.1194 9.228C18.3594 9.132 18.6434 8.948 18.9714 8.676V5.904L17.9034 5.28V4.908L19.9554 3.9H20.4114V9.6L21.4914 10.02L21.2514 10.5ZM33.8541 10.5H31.5741V6.456C31.5741 6.016 31.5061 5.708 31.3701 5.532C31.2341 5.356 30.9901 5.268 30.6381 5.268C30.3901 5.268 30.1461 5.316 29.9061 5.412C29.6661 5.5 29.3821 5.68 29.0541 5.952V9.6L30.1341 10.02L29.8941 10.5H27.6141V6.456C27.6141 6.016 27.5461 5.708 27.4101 5.532C27.2741 5.356 27.0301 5.268 26.6781 5.268C26.4301 5.268 26.1861 5.316 25.9461 5.412C25.7061 5.5 25.4221 5.68 25.0941 5.952V9.6L26.1741 10.02L25.9341 10.5H22.5861V10.128L23.6541 9.288V5.892L22.5861 5.268V4.896L24.6381 3.888L25.0221 5.424L26.6181 4.092C26.7861 4.028 27.0061 3.996 27.2781 3.996C27.7421 3.996 28.1261 4.124 28.4301 4.38C28.7341 4.628 28.9261 4.972 29.0061 5.412L30.5661 4.104C30.7341 4.04 30.9541 4.008 31.2261 4.008C31.7701 4.008 32.2021 4.176 32.5221 4.512C32.8421 4.84 33.0021 5.288 33.0021 5.856V9.6L34.0941 10.02L33.8541 10.5ZM38.8348 4.008C39.3628 4.008 39.8348 4.148 40.2508 4.428C40.6748 4.7 41.0028 5.072 41.2348 5.544C41.4748 6.016 41.5948 6.536 41.5948 7.104C41.5948 7.72 41.4068 8.3 41.0308 8.844C40.6548 9.38 40.1828 9.812 39.6148 10.14C39.0548 10.46 38.5108 10.62 37.9828 10.62C37.4548 10.62 36.9788 10.484 36.5548 10.212C36.1388 9.932 35.8108 9.556 35.5708 9.084C35.3388 8.612 35.2228 8.092 35.2228 7.524C35.2228 6.908 35.4108 6.332 35.7868 5.796C36.1628 5.252 36.6308 4.82 37.1908 4.5C37.7588 4.172 38.3068 4.008 38.8348 4.008ZM38.1388 5.016C37.2348 5.016 36.7828 5.66 36.7828 6.948C36.7828 7.708 36.9468 8.344 37.2748 8.856C37.6028 9.36 38.0708 9.612 38.6788 9.612C39.5828 9.612 40.0348 8.964 40.0348 7.668C40.0348 6.916 39.8708 6.288 39.5428 5.784C39.2148 5.272 38.7468 5.016 38.1388 5.016Z" fill="white" fill-opacity="0.5"/>
</svg>
