<svg width="16" height="16" viewBox="0 0 16 16" fill="none" xmlns="http://www.w3.org/2000/svg">
<path d="M1 15L1.69925 14.3007M1.69925 14.3007H3.79702L10.0903 8.00745M1.69925 14.3007L1.69925 12.203L7.99255 5.90969M10.0903 3.81193L12.4678 1.43446C12.746 1.15628 13.1232 1 13.5167 1C13.9101 1 14.2874 1.15628 14.5655 1.43446C14.8437 1.71264 15 2.08994 15 2.48334C15 2.87675 14.8437 3.25404 14.5655 3.53222L12.1881 5.90969L12.4678 6.18939C12.6055 6.32713 12.7148 6.49066 12.7893 6.67062C12.8639 6.85059 12.9022 7.04348 12.9022 7.23827C12.9022 7.43307 12.8639 7.62596 12.7893 7.80593C12.7148 7.98589 12.6055 8.14941 12.4678 8.28716C12.33 8.4249 12.1665 8.53416 11.9865 8.6087C11.8066 8.68325 11.6137 8.72162 11.4189 8.72162C11.2241 8.72162 11.0312 8.68325 10.8512 8.6087C10.6713 8.53416 10.5078 8.4249 10.37 8.28716L7.71284 5.62999C7.5751 5.49225 7.46584 5.32873 7.3913 5.14876C7.31675 4.96879 7.27838 4.7759 7.27838 4.58111C7.27838 4.38631 7.31675 4.19342 7.3913 4.01346C7.46584 3.83349 7.5751 3.66997 7.71284 3.53222C7.85059 3.39448 8.01411 3.28522 8.19408 3.21068C8.37404 3.13613 8.56693 3.09776 8.76173 3.09776C8.95652 3.09776 9.14941 3.13613 9.32938 3.21068C9.50934 3.28522 9.67287 3.39448 9.81061 3.53222L10.0903 3.81193Z" stroke="#F5F5F5" stroke-width="1.16667" stroke-linecap="round" stroke-linejoin="round"/>
</svg>
