<svg width="14" height="14" viewBox="0 0 14 14" fill="none" xmlns="http://www.w3.org/2000/svg">
<g opacity="0.4" clip-path="url(#clip0_13_37)">
<path d="M6.26093 2.96102C7.61973 2.79909 8.9942 3.08633 10.1744 3.77888C11.3547 4.47143 12.2758 5.53123 12.7972 6.79644C12.8458 6.9274 12.8458 7.07147 12.7972 7.20244C12.5828 7.72218 12.2995 8.21073 11.9548 8.65494M8.21568 8.25885C7.88562 8.57763 7.44357 8.75402 6.98472 8.75003C6.52588 8.74605 6.08696 8.562 5.76249 8.23754C5.43803 7.91307 5.25398 7.47415 5.25 7.01531C5.24601 6.55646 5.4224 6.11441 5.74118 5.78435M10.1961 10.2078C9.42229 10.6661 8.55895 10.9527 7.66464 11.048C6.77033 11.1433 5.86598 11.0451 5.01296 10.7601C4.15994 10.4751 3.37821 10.01 2.7208 9.39621C2.06339 8.78246 1.5457 8.03448 1.20284 7.20302C1.15423 7.07205 1.15423 6.92799 1.20284 6.79702C1.72005 5.54277 2.63007 4.49008 3.79634 3.79694M1.16668 1.16669L12.8333 12.8334" stroke="white" stroke-linecap="round" stroke-linejoin="round"/>
</g>
<defs>
<clipPath id="clip0_13_37">
<rect width="14" height="14" fill="white"/>
</clipPath>
</defs>
</svg>
