<svg width="14" height="14" viewBox="0 0 14 14" fill="none" xmlns="http://www.w3.org/2000/svg">
<path d="M1.20284 7.20303C1.15423 7.07206 1.15423 6.92799 1.20284 6.79703C1.67634 5.64894 2.48006 4.6673 3.51213 3.97655C4.54419 3.2858 5.75812 2.91705 7.00001 2.91705C8.2419 2.91705 9.45583 3.2858 10.4879 3.97655C11.52 4.6673 12.3237 5.64894 12.7972 6.79703C12.8458 6.92799 12.8458 7.07206 12.7972 7.20303C12.3237 8.35111 11.52 9.33275 10.4879 10.0235C9.45583 10.7143 8.2419 11.083 7.00001 11.083C5.75812 11.083 4.54419 10.7143 3.51213 10.0235C2.48006 9.33275 1.67634 8.35111 1.20284 7.20303Z" stroke="white" stroke-linecap="round" stroke-linejoin="round"/>
<path d="M7.00001 8.75003C7.96651 8.75003 8.75001 7.96652 8.75001 7.00003C8.75001 6.03353 7.96651 5.25003 7.00001 5.25003C6.03351 5.25003 5.25001 6.03353 5.25001 7.00003C5.25001 7.96652 6.03351 8.75003 7.00001 8.75003Z" stroke="white" stroke-linecap="round" stroke-linejoin="round"/>
</svg>
